<svg width="24" height="24" viewBox="0 0 24 24" fill="none" xmlns="http://www.w3.org/2000/svg">
<path d="M0 12.751C0 12.2511 0 11.7511 0 11.2512C0.0145218 11.1675 0.0320481 11.0844 0.043315 11.0003C0.0983976 10.5907 0.128943 10.1761 0.209564 9.77158C0.847271 6.56833 2.49599 4.00697 5.17601 2.14285C7.82298 0.302014 10.7702 -0.335883 13.9487 0.16407C16.1918 0.517066 18.1808 1.45764 19.8798 2.96576C22.517 5.30655 23.9039 8.25219 23.9957 11.7779C24.0603 14.2586 23.3963 16.5541 22.0085 18.6135C20.1007 21.4447 17.4564 23.1862 14.0926 23.8136C13.6497 23.8962 13.199 23.9388 12.7521 23.9998H11.2519C11.192 23.9866 11.1324 23.9658 11.0719 23.961C8.664 23.77 6.49925 22.9401 4.60716 21.4422C2.20956 19.5443 0.72634 17.0841 0.183275 14.0689C0.104657 13.6328 0.0603405 13.1904 0 12.751ZM3.11718 8.45172C9.03981 5.98951 14.9659 5.98826 20.8943 8.45323C19.7909 5.39643 16.4359 2.27253 11.7161 2.40522C7.20456 2.53215 4.09364 5.64603 3.11718 8.45197V8.45172ZM21.5588 12.6754C21.2018 12.73 20.8678 12.7585 20.5451 12.8346C19.3117 13.1255 18.2777 13.7847 17.3598 14.6317C15.7616 16.1065 14.6284 17.869 14.14 20.008C14.0391 20.4498 14.01 20.908 13.9452 21.3777C17.8495 20.6459 21.2636 17.1292 21.5586 12.6754H21.5588ZM2.46069 12.709C2.65348 16.8468 5.96194 20.6203 10.0493 21.3719C10.0028 20.9821 9.97922 20.6013 9.90936 20.229C9.6019 18.5885 8.84727 17.1565 7.81022 15.8682C6.83776 14.66 5.68878 13.6663 4.23185 13.075C3.6655 12.8452 3.07812 12.7075 2.46069 12.709ZM11.9985 10.2059C10.9962 10.2082 10.2018 11.0078 10.2068 12.0097C10.2118 13.0024 11.0005 13.7905 11.9937 13.795C12.9957 13.7997 13.7957 13.0044 13.7969 12.0027C13.7982 11.0006 13.0008 10.2037 11.9985 10.2057V10.2059Z" fill="#00377D"/>
</svg>
